<?xml version="1.0" encoding="utf-8" standalone="no"?>
<!DOCTYPE svg PUBLIC "-//W3C//DTD SVG 1.1//EN"
  "http://www.w3.org/Graphics/SVG/1.1/DTD/svg11.dtd">
<!-- Created with matplotlib (http://matplotlib.org/) -->
<svg height="346pt" version="1.1" viewBox="0 0 429 346" width="429pt" xmlns="http://www.w3.org/2000/svg" xmlns:xlink="http://www.w3.org/1999/xlink">
 <defs>
  <style type="text/css">
*{stroke-linecap:butt;stroke-linejoin:round;}
  </style>
 </defs>
 <g id="figure_1">
  <g id="patch_1">
   <path d="M 0 346.764743 
L 429.802105 346.764743 
L 429.802105 0 
L 0 0 
z
" style="fill:#f0f0f0;"/>
  </g>
  <g id="axes_1">
   <g id="patch_2">
    <path d="M 46.762105 290.480087 
L 422.602105 290.480087 
L 422.602105 57.200087 
L 46.762105 57.200087 
z
" style="fill:#f0f0f0;"/>
   </g>
   <g id="matplotlib.axis_1">
    <g id="xtick_1">
     <g id="line2d_1">
      <path clip-path="url(#p5631599792)" d="M 53.355789 290.480087 
L 53.355789 57.200087 
" style="fill:none;stroke:#cbcbcb;"/>
     </g>
     <g id="line2d_2"/>
     <g id="text_1">
      <!-- 1960 -->
      <defs>
       <path d="M 12.40625 8.296875 
L 28.515625 8.296875 
L 28.515625 63.921875 
L 10.984375 60.40625 
L 10.984375 69.390625 
L 28.421875 72.90625 
L 38.28125 72.90625 
L 38.28125 8.296875 
L 54.390625 8.296875 
L 54.390625 0 
L 12.40625 0 
z
" id="DejaVuSans-31"/>
       <path d="M 10.984375 1.515625 
L 10.984375 10.5 
Q 14.703125 8.734375 18.5 7.8125 
Q 22.3125 6.890625 25.984375 6.890625 
Q 35.75 6.890625 40.890625 13.453125 
Q 46.046875 20.015625 46.78125 33.40625 
Q 43.953125 29.203125 39.59375 26.953125 
Q 35.25 24.703125 29.984375 24.703125 
Q 19.046875 24.703125 12.671875 31.3125 
Q 6.296875 37.9375 6.296875 49.421875 
Q 6.296875 60.640625 12.9375 67.421875 
Q 19.578125 74.21875 30.609375 74.21875 
Q 43.265625 74.21875 49.921875 64.515625 
Q 56.59375 54.828125 56.59375 36.375 
Q 56.59375 19.140625 48.40625 8.859375 
Q 40.234375 -1.421875 26.421875 -1.421875 
Q 22.703125 -1.421875 18.890625 -0.6875 
Q 15.09375 0.046875 10.984375 1.515625 
M 30.609375 32.421875 
Q 37.25 32.421875 41.125 36.953125 
Q 45.015625 41.5 45.015625 49.421875 
Q 45.015625 57.28125 41.125 61.84375 
Q 37.25 66.40625 30.609375 66.40625 
Q 23.96875 66.40625 20.09375 61.84375 
Q 16.21875 57.28125 16.21875 49.421875 
Q 16.21875 41.5 20.09375 36.953125 
Q 23.96875 32.421875 30.609375 32.421875 
" id="DejaVuSans-39"/>
       <path d="M 33.015625 40.375 
Q 26.375 40.375 22.484375 35.828125 
Q 18.609375 31.296875 18.609375 23.390625 
Q 18.609375 15.53125 22.484375 10.953125 
Q 26.375 6.390625 33.015625 6.390625 
Q 39.65625 6.390625 43.53125 10.953125 
Q 47.40625 15.53125 47.40625 23.390625 
Q 47.40625 31.296875 43.53125 35.828125 
Q 39.65625 40.375 33.015625 40.375 
M 52.59375 71.296875 
L 52.59375 62.3125 
Q 48.875 64.0625 45.09375 64.984375 
Q 41.3125 65.921875 37.59375 65.921875 
Q 27.828125 65.921875 22.671875 59.328125 
Q 17.53125 52.734375 16.796875 39.40625 
Q 19.671875 43.65625 24.015625 45.921875 
Q 28.375 48.1875 33.59375 48.1875 
Q 44.578125 48.1875 50.953125 41.515625 
Q 57.328125 34.859375 57.328125 23.390625 
Q 57.328125 12.15625 50.6875 5.359375 
Q 44.046875 -1.421875 33.015625 -1.421875 
Q 20.359375 -1.421875 13.671875 8.265625 
Q 6.984375 17.96875 6.984375 36.375 
Q 6.984375 53.65625 15.1875 63.9375 
Q 23.390625 74.21875 37.203125 74.21875 
Q 40.921875 74.21875 44.703125 73.484375 
Q 48.484375 72.75 52.59375 71.296875 
" id="DejaVuSans-36"/>
       <path d="M 31.78125 66.40625 
Q 24.171875 66.40625 20.328125 58.90625 
Q 16.5 51.421875 16.5 36.375 
Q 16.5 21.390625 20.328125 13.890625 
Q 24.171875 6.390625 31.78125 6.390625 
Q 39.453125 6.390625 43.28125 13.890625 
Q 47.125 21.390625 47.125 36.375 
Q 47.125 51.421875 43.28125 58.90625 
Q 39.453125 66.40625 31.78125 66.40625 
M 31.78125 74.21875 
Q 44.046875 74.21875 50.515625 64.515625 
Q 56.984375 54.828125 56.984375 36.375 
Q 56.984375 17.96875 50.515625 8.265625 
Q 44.046875 -1.421875 31.78125 -1.421875 
Q 19.53125 -1.421875 13.0625 8.265625 
Q 6.59375 17.96875 6.59375 36.375 
Q 6.59375 54.828125 13.0625 64.515625 
Q 19.53125 74.21875 31.78125 74.21875 
" id="DejaVuSans-30"/>
      </defs>
      <g style="fill:#555555;" transform="translate(40.630789 301.578525)scale(0.1 -0.1)">
       <use xlink:href="#DejaVuSans-31"/>
       <use x="63.623047" xlink:href="#DejaVuSans-39"/>
       <use x="127.246094" xlink:href="#DejaVuSans-36"/>
       <use x="190.869141" xlink:href="#DejaVuSans-30"/>
      </g>
     </g>
    </g>
    <g id="xtick_2">
     <g id="line2d_3">
      <path clip-path="url(#p5631599792)" d="M 119.292632 290.480087 
L 119.292632 57.200087 
" style="fill:none;stroke:#cbcbcb;"/>
     </g>
     <g id="line2d_4"/>
     <g id="text_2">
      <!-- 1970 -->
      <defs>
       <path d="M 8.203125 72.90625 
L 55.078125 72.90625 
L 55.078125 68.703125 
L 28.609375 0 
L 18.3125 0 
L 43.21875 64.59375 
L 8.203125 64.59375 
z
" id="DejaVuSans-37"/>
      </defs>
      <g style="fill:#555555;" transform="translate(106.567632 301.578525)scale(0.1 -0.1)">
       <use xlink:href="#DejaVuSans-31"/>
       <use x="63.623047" xlink:href="#DejaVuSans-39"/>
       <use x="127.246094" xlink:href="#DejaVuSans-37"/>
       <use x="190.869141" xlink:href="#DejaVuSans-30"/>
      </g>
     </g>
    </g>
    <g id="xtick_3">
     <g id="line2d_5">
      <path clip-path="url(#p5631599792)" d="M 185.229474 290.480087 
L 185.229474 57.200087 
" style="fill:none;stroke:#cbcbcb;"/>
     </g>
     <g id="line2d_6"/>
     <g id="text_3">
      <!-- 1980 -->
      <defs>
       <path d="M 31.78125 34.625 
Q 24.75 34.625 20.71875 30.859375 
Q 16.703125 27.09375 16.703125 20.515625 
Q 16.703125 13.921875 20.71875 10.15625 
Q 24.75 6.390625 31.78125 6.390625 
Q 38.8125 6.390625 42.859375 10.171875 
Q 46.921875 13.96875 46.921875 20.515625 
Q 46.921875 27.09375 42.890625 30.859375 
Q 38.875 34.625 31.78125 34.625 
M 21.921875 38.8125 
Q 15.578125 40.375 12.03125 44.71875 
Q 8.5 49.078125 8.5 55.328125 
Q 8.5 64.0625 14.71875 69.140625 
Q 20.953125 74.21875 31.78125 74.21875 
Q 42.671875 74.21875 48.875 69.140625 
Q 55.078125 64.0625 55.078125 55.328125 
Q 55.078125 49.078125 51.53125 44.71875 
Q 48 40.375 41.703125 38.8125 
Q 48.828125 37.15625 52.796875 32.3125 
Q 56.78125 27.484375 56.78125 20.515625 
Q 56.78125 9.90625 50.3125 4.234375 
Q 43.84375 -1.421875 31.78125 -1.421875 
Q 19.734375 -1.421875 13.25 4.234375 
Q 6.78125 9.90625 6.78125 20.515625 
Q 6.78125 27.484375 10.78125 32.3125 
Q 14.796875 37.15625 21.921875 38.8125 
M 18.3125 54.390625 
Q 18.3125 48.734375 21.84375 45.5625 
Q 25.390625 42.390625 31.78125 42.390625 
Q 38.140625 42.390625 41.71875 45.5625 
Q 45.3125 48.734375 45.3125 54.390625 
Q 45.3125 60.0625 41.71875 63.234375 
Q 38.140625 66.40625 31.78125 66.40625 
Q 25.390625 66.40625 21.84375 63.234375 
Q 18.3125 60.0625 18.3125 54.390625 
" id="DejaVuSans-38"/>
      </defs>
      <g style="fill:#555555;" transform="translate(172.504474 301.578525)scale(0.1 -0.1)">
       <use xlink:href="#DejaVuSans-31"/>
       <use x="63.623047" xlink:href="#DejaVuSans-39"/>
       <use x="127.246094" xlink:href="#DejaVuSans-38"/>
       <use x="190.869141" xlink:href="#DejaVuSans-30"/>
      </g>
     </g>
    </g>
    <g id="xtick_4">
     <g id="line2d_7">
      <path clip-path="url(#p5631599792)" d="M 251.166316 290.480087 
L 251.166316 57.200087 
" style="fill:none;stroke:#cbcbcb;"/>
     </g>
     <g id="line2d_8"/>
     <g id="text_4">
      <!-- 1990 -->
      <g style="fill:#555555;" transform="translate(238.441316 301.578525)scale(0.1 -0.1)">
       <use xlink:href="#DejaVuSans-31"/>
       <use x="63.623047" xlink:href="#DejaVuSans-39"/>
       <use x="127.246094" xlink:href="#DejaVuSans-39"/>
       <use x="190.869141" xlink:href="#DejaVuSans-30"/>
      </g>
     </g>
    </g>
    <g id="xtick_5">
     <g id="line2d_9">
      <path clip-path="url(#p5631599792)" d="M 317.103158 290.480087 
L 317.103158 57.200087 
" style="fill:none;stroke:#cbcbcb;"/>
     </g>
     <g id="line2d_10"/>
     <g id="text_5">
      <!-- 2000 -->
      <defs>
       <path d="M 19.1875 8.296875 
L 53.609375 8.296875 
L 53.609375 0 
L 7.328125 0 
L 7.328125 8.296875 
Q 12.9375 14.109375 22.625 23.890625 
Q 32.328125 33.6875 34.8125 36.53125 
Q 39.546875 41.84375 41.421875 45.53125 
Q 43.3125 49.21875 43.3125 52.78125 
Q 43.3125 58.59375 39.234375 62.25 
Q 35.15625 65.921875 28.609375 65.921875 
Q 23.96875 65.921875 18.8125 64.3125 
Q 13.671875 62.703125 7.8125 59.421875 
L 7.8125 69.390625 
Q 13.765625 71.78125 18.9375 73 
Q 24.125 74.21875 28.421875 74.21875 
Q 39.75 74.21875 46.484375 68.546875 
Q 53.21875 62.890625 53.21875 53.421875 
Q 53.21875 48.921875 51.53125 44.890625 
Q 49.859375 40.875 45.40625 35.40625 
Q 44.1875 33.984375 37.640625 27.21875 
Q 31.109375 20.453125 19.1875 8.296875 
" id="DejaVuSans-32"/>
      </defs>
      <g style="fill:#555555;" transform="translate(304.378158 301.578525)scale(0.1 -0.1)">
       <use xlink:href="#DejaVuSans-32"/>
       <use x="63.623047" xlink:href="#DejaVuSans-30"/>
       <use x="127.246094" xlink:href="#DejaVuSans-30"/>
       <use x="190.869141" xlink:href="#DejaVuSans-30"/>
      </g>
     </g>
    </g>
    <g id="xtick_6">
     <g id="line2d_11">
      <path clip-path="url(#p5631599792)" d="M 383.04 290.480087 
L 383.04 57.200087 
" style="fill:none;stroke:#cbcbcb;"/>
     </g>
     <g id="line2d_12"/>
     <g id="text_6">
      <!-- 2010 -->
      <g style="fill:#555555;" transform="translate(370.315 301.578525)scale(0.1 -0.1)">
       <use xlink:href="#DejaVuSans-32"/>
       <use x="63.623047" xlink:href="#DejaVuSans-30"/>
       <use x="127.246094" xlink:href="#DejaVuSans-31"/>
       <use x="190.869141" xlink:href="#DejaVuSans-30"/>
      </g>
     </g>
    </g>
    <g id="text_7">
     <!-- Anno di riferimento -->
     <defs>
      <path d="M 34.1875 63.1875 
L 20.796875 26.90625 
L 47.609375 26.90625 
z
M 28.609375 72.90625 
L 39.796875 72.90625 
L 67.578125 0 
L 57.328125 0 
L 50.6875 18.703125 
L 17.828125 18.703125 
L 11.1875 0 
L 0.78125 0 
z
" id="DejaVuSans-41"/>
      <path d="M 54.890625 33.015625 
L 54.890625 0 
L 45.90625 0 
L 45.90625 32.71875 
Q 45.90625 40.484375 42.875 44.328125 
Q 39.84375 48.1875 33.796875 48.1875 
Q 26.515625 48.1875 22.3125 43.546875 
Q 18.109375 38.921875 18.109375 30.90625 
L 18.109375 0 
L 9.078125 0 
L 9.078125 54.6875 
L 18.109375 54.6875 
L 18.109375 46.1875 
Q 21.34375 51.125 25.703125 53.5625 
Q 30.078125 56 35.796875 56 
Q 45.21875 56 50.046875 50.171875 
Q 54.890625 44.34375 54.890625 33.015625 
" id="DejaVuSans-6e"/>
      <path d="M 30.609375 48.390625 
Q 23.390625 48.390625 19.1875 42.75 
Q 14.984375 37.109375 14.984375 27.296875 
Q 14.984375 17.484375 19.15625 11.84375 
Q 23.34375 6.203125 30.609375 6.203125 
Q 37.796875 6.203125 41.984375 11.859375 
Q 46.1875 17.53125 46.1875 27.296875 
Q 46.1875 37.015625 41.984375 42.703125 
Q 37.796875 48.390625 30.609375 48.390625 
M 30.609375 56 
Q 42.328125 56 49.015625 48.375 
Q 55.71875 40.765625 55.71875 27.296875 
Q 55.71875 13.875 49.015625 6.21875 
Q 42.328125 -1.421875 30.609375 -1.421875 
Q 18.84375 -1.421875 12.171875 6.21875 
Q 5.515625 13.875 5.515625 27.296875 
Q 5.515625 40.765625 12.171875 48.375 
Q 18.84375 56 30.609375 56 
" id="DejaVuSans-6f"/>
      <path id="DejaVuSans-20"/>
      <path d="M 45.40625 46.390625 
L 45.40625 75.984375 
L 54.390625 75.984375 
L 54.390625 0 
L 45.40625 0 
L 45.40625 8.203125 
Q 42.578125 3.328125 38.25 0.953125 
Q 33.9375 -1.421875 27.875 -1.421875 
Q 17.96875 -1.421875 11.734375 6.484375 
Q 5.515625 14.40625 5.515625 27.296875 
Q 5.515625 40.1875 11.734375 48.09375 
Q 17.96875 56 27.875 56 
Q 33.9375 56 38.25 53.625 
Q 42.578125 51.265625 45.40625 46.390625 
M 14.796875 27.296875 
Q 14.796875 17.390625 18.875 11.75 
Q 22.953125 6.109375 30.078125 6.109375 
Q 37.203125 6.109375 41.296875 11.75 
Q 45.40625 17.390625 45.40625 27.296875 
Q 45.40625 37.203125 41.296875 42.84375 
Q 37.203125 48.484375 30.078125 48.484375 
Q 22.953125 48.484375 18.875 42.84375 
Q 14.796875 37.203125 14.796875 27.296875 
" id="DejaVuSans-64"/>
      <path d="M 9.421875 54.6875 
L 18.40625 54.6875 
L 18.40625 0 
L 9.421875 0 
z
M 9.421875 75.984375 
L 18.40625 75.984375 
L 18.40625 64.59375 
L 9.421875 64.59375 
z
" id="DejaVuSans-69"/>
      <path d="M 41.109375 46.296875 
Q 39.59375 47.171875 37.8125 47.578125 
Q 36.03125 48 33.890625 48 
Q 26.265625 48 22.1875 43.046875 
Q 18.109375 38.09375 18.109375 28.8125 
L 18.109375 0 
L 9.078125 0 
L 9.078125 54.6875 
L 18.109375 54.6875 
L 18.109375 46.1875 
Q 20.953125 51.171875 25.484375 53.578125 
Q 30.03125 56 36.53125 56 
Q 37.453125 56 38.578125 55.875 
Q 39.703125 55.765625 41.0625 55.515625 
z
" id="DejaVuSans-72"/>
      <path d="M 37.109375 75.984375 
L 37.109375 68.5 
L 28.515625 68.5 
Q 23.6875 68.5 21.796875 66.546875 
Q 19.921875 64.59375 19.921875 59.515625 
L 19.921875 54.6875 
L 34.71875 54.6875 
L 34.71875 47.703125 
L 19.921875 47.703125 
L 19.921875 0 
L 10.890625 0 
L 10.890625 47.703125 
L 2.296875 47.703125 
L 2.296875 54.6875 
L 10.890625 54.6875 
L 10.890625 58.5 
Q 10.890625 67.625 15.140625 71.796875 
Q 19.390625 75.984375 28.609375 75.984375 
z
" id="DejaVuSans-66"/>
      <path d="M 56.203125 29.59375 
L 56.203125 25.203125 
L 14.890625 25.203125 
Q 15.484375 15.921875 20.484375 11.0625 
Q 25.484375 6.203125 34.421875 6.203125 
Q 39.59375 6.203125 44.453125 7.46875 
Q 49.3125 8.734375 54.109375 11.28125 
L 54.109375 2.78125 
Q 49.265625 0.734375 44.1875 -0.34375 
Q 39.109375 -1.421875 33.890625 -1.421875 
Q 20.796875 -1.421875 13.15625 6.1875 
Q 5.515625 13.8125 5.515625 26.8125 
Q 5.515625 40.234375 12.765625 48.109375 
Q 20.015625 56 32.328125 56 
Q 43.359375 56 49.78125 48.890625 
Q 56.203125 41.796875 56.203125 29.59375 
M 47.21875 32.234375 
Q 47.125 39.59375 43.09375 43.984375 
Q 39.0625 48.390625 32.421875 48.390625 
Q 24.90625 48.390625 20.390625 44.140625 
Q 15.875 39.890625 15.1875 32.171875 
z
" id="DejaVuSans-65"/>
      <path d="M 52 44.1875 
Q 55.375 50.25 60.0625 53.125 
Q 64.75 56 71.09375 56 
Q 79.640625 56 84.28125 50.015625 
Q 88.921875 44.046875 88.921875 33.015625 
L 88.921875 0 
L 79.890625 0 
L 79.890625 32.71875 
Q 79.890625 40.578125 77.09375 44.375 
Q 74.3125 48.1875 68.609375 48.1875 
Q 61.625 48.1875 57.5625 43.546875 
Q 53.515625 38.921875 53.515625 30.90625 
L 53.515625 0 
L 44.484375 0 
L 44.484375 32.71875 
Q 44.484375 40.625 41.703125 44.40625 
Q 38.921875 48.1875 33.109375 48.1875 
Q 26.21875 48.1875 22.15625 43.53125 
Q 18.109375 38.875 18.109375 30.90625 
L 18.109375 0 
L 9.078125 0 
L 9.078125 54.6875 
L 18.109375 54.6875 
L 18.109375 46.1875 
Q 21.1875 51.21875 25.484375 53.609375 
Q 29.78125 56 35.6875 56 
Q 41.65625 56 45.828125 52.96875 
Q 50 49.953125 52 44.1875 
" id="DejaVuSans-6d"/>
      <path d="M 18.3125 70.21875 
L 18.3125 54.6875 
L 36.8125 54.6875 
L 36.8125 47.703125 
L 18.3125 47.703125 
L 18.3125 18.015625 
Q 18.3125 11.328125 20.140625 9.421875 
Q 21.96875 7.515625 27.59375 7.515625 
L 36.8125 7.515625 
L 36.8125 0 
L 27.59375 0 
Q 17.1875 0 13.234375 3.875 
Q 9.28125 7.765625 9.28125 18.015625 
L 9.28125 47.703125 
L 2.6875 47.703125 
L 2.6875 54.6875 
L 9.28125 54.6875 
L 9.28125 70.21875 
z
" id="DejaVuSans-74"/>
     </defs>
     <g style="fill:#555555;" transform="translate(195.94648 313.736962)scale(0.08 -0.08)">
      <use xlink:href="#DejaVuSans-41"/>
      <use x="68.408203" xlink:href="#DejaVuSans-6e"/>
      <use x="131.787109" xlink:href="#DejaVuSans-6e"/>
      <use x="195.166016" xlink:href="#DejaVuSans-6f"/>
      <use x="256.347656" xlink:href="#DejaVuSans-20"/>
      <use x="288.134766" xlink:href="#DejaVuSans-64"/>
      <use x="351.611328" xlink:href="#DejaVuSans-69"/>
      <use x="379.394531" xlink:href="#DejaVuSans-20"/>
      <use x="411.181641" xlink:href="#DejaVuSans-72"/>
      <use x="452.294922" xlink:href="#DejaVuSans-69"/>
      <use x="480.078125" xlink:href="#DejaVuSans-66"/>
      <use x="515.283203" xlink:href="#DejaVuSans-65"/>
      <use x="576.806641" xlink:href="#DejaVuSans-72"/>
      <use x="617.919922" xlink:href="#DejaVuSans-69"/>
      <use x="645.703125" xlink:href="#DejaVuSans-6d"/>
      <use x="743.115234" xlink:href="#DejaVuSans-65"/>
      <use x="804.638672" xlink:href="#DejaVuSans-6e"/>
      <use x="868.017578" xlink:href="#DejaVuSans-74"/>
      <use x="907.226562" xlink:href="#DejaVuSans-6f"/>
     </g>
    </g>
   </g>
   <g id="matplotlib.axis_2">
    <g id="ytick_1">
     <g id="line2d_13">
      <path clip-path="url(#p5631599792)" d="M 46.762105 270.190899 
L 422.602105 270.190899 
" style="fill:none;stroke:#cbcbcb;"/>
     </g>
     <g id="line2d_14"/>
     <g id="text_8">
      <!-- 320 -->
      <defs>
       <path d="M 40.578125 39.3125 
Q 47.65625 37.796875 51.625 33 
Q 55.609375 28.21875 55.609375 21.1875 
Q 55.609375 10.40625 48.1875 4.484375 
Q 40.765625 -1.421875 27.09375 -1.421875 
Q 22.515625 -1.421875 17.65625 -0.515625 
Q 12.796875 0.390625 7.625 2.203125 
L 7.625 11.71875 
Q 11.71875 9.328125 16.59375 8.109375 
Q 21.484375 6.890625 26.8125 6.890625 
Q 36.078125 6.890625 40.9375 10.546875 
Q 45.796875 14.203125 45.796875 21.1875 
Q 45.796875 27.640625 41.28125 31.265625 
Q 36.765625 34.90625 28.71875 34.90625 
L 20.21875 34.90625 
L 20.21875 43.015625 
L 29.109375 43.015625 
Q 36.375 43.015625 40.234375 45.921875 
Q 44.09375 48.828125 44.09375 54.296875 
Q 44.09375 59.90625 40.109375 62.90625 
Q 36.140625 65.921875 28.71875 65.921875 
Q 24.65625 65.921875 20.015625 65.03125 
Q 15.375 64.15625 9.8125 62.3125 
L 9.8125 71.09375 
Q 15.4375 72.65625 20.34375 73.4375 
Q 25.25 74.21875 29.59375 74.21875 
Q 40.828125 74.21875 47.359375 69.109375 
Q 53.90625 64.015625 53.90625 55.328125 
Q 53.90625 49.265625 50.4375 45.09375 
Q 46.96875 40.921875 40.578125 39.3125 
" id="DejaVuSans-33"/>
      </defs>
      <g style="fill:#555555;" transform="translate(24.174605 273.990118)scale(0.1 -0.1)">
       <use xlink:href="#DejaVuSans-33"/>
       <use x="63.623047" xlink:href="#DejaVuSans-32"/>
       <use x="127.246094" xlink:href="#DejaVuSans-30"/>
      </g>
     </g>
    </g>
    <g id="ytick_2">
     <g id="line2d_15">
      <path clip-path="url(#p5631599792)" d="M 46.762105 222.123645 
L 422.602105 222.123645 
" style="fill:none;stroke:#cbcbcb;"/>
     </g>
     <g id="line2d_16"/>
     <g id="text_9">
      <!-- 340 -->
      <defs>
       <path d="M 37.796875 64.3125 
L 12.890625 25.390625 
L 37.796875 25.390625 
z
M 35.203125 72.90625 
L 47.609375 72.90625 
L 47.609375 25.390625 
L 58.015625 25.390625 
L 58.015625 17.1875 
L 47.609375 17.1875 
L 47.609375 0 
L 37.796875 0 
L 37.796875 17.1875 
L 4.890625 17.1875 
L 4.890625 26.703125 
z
" id="DejaVuSans-34"/>
      </defs>
      <g style="fill:#555555;" transform="translate(24.174605 225.922863)scale(0.1 -0.1)">
       <use xlink:href="#DejaVuSans-33"/>
       <use x="63.623047" xlink:href="#DejaVuSans-34"/>
       <use x="127.246094" xlink:href="#DejaVuSans-30"/>
      </g>
     </g>
    </g>
    <g id="ytick_3">
     <g id="line2d_17">
      <path clip-path="url(#p5631599792)" d="M 46.762105 174.05639 
L 422.602105 174.05639 
" style="fill:none;stroke:#cbcbcb;"/>
     </g>
     <g id="line2d_18"/>
     <g id="text_10">
      <!-- 360 -->
      <g style="fill:#555555;" transform="translate(24.174605 177.855609)scale(0.1 -0.1)">
       <use xlink:href="#DejaVuSans-33"/>
       <use x="63.623047" xlink:href="#DejaVuSans-36"/>
       <use x="127.246094" xlink:href="#DejaVuSans-30"/>
      </g>
     </g>
    </g>
    <g id="ytick_4">
     <g id="line2d_19">
      <path clip-path="url(#p5631599792)" d="M 46.762105 125.989135 
L 422.602105 125.989135 
" style="fill:none;stroke:#cbcbcb;"/>
     </g>
     <g id="line2d_20"/>
     <g id="text_11">
      <!-- 380 -->
      <g style="fill:#555555;" transform="translate(24.174605 129.788354)scale(0.1 -0.1)">
       <use xlink:href="#DejaVuSans-33"/>
       <use x="63.623047" xlink:href="#DejaVuSans-38"/>
       <use x="127.246094" xlink:href="#DejaVuSans-30"/>
      </g>
     </g>
    </g>
    <g id="ytick_5">
     <g id="line2d_21">
      <path clip-path="url(#p5631599792)" d="M 46.762105 77.921881 
L 422.602105 77.921881 
" style="fill:none;stroke:#cbcbcb;"/>
     </g>
     <g id="line2d_22"/>
     <g id="text_12">
      <!-- 400 -->
      <g style="fill:#555555;" transform="translate(24.174605 81.721099)scale(0.1 -0.1)">
       <use xlink:href="#DejaVuSans-34"/>
       <use x="63.623047" xlink:href="#DejaVuSans-30"/>
       <use x="127.246094" xlink:href="#DejaVuSans-30"/>
      </g>
     </g>
    </g>
    <g id="text_13">
     <!-- Concentrazione di CO2 (ppm) -->
     <defs>
      <path d="M 64.40625 67.28125 
L 64.40625 56.890625 
Q 59.421875 61.53125 53.78125 63.8125 
Q 48.140625 66.109375 41.796875 66.109375 
Q 29.296875 66.109375 22.65625 58.46875 
Q 16.015625 50.828125 16.015625 36.375 
Q 16.015625 21.96875 22.65625 14.328125 
Q 29.296875 6.6875 41.796875 6.6875 
Q 48.140625 6.6875 53.78125 8.984375 
Q 59.421875 11.28125 64.40625 15.921875 
L 64.40625 5.609375 
Q 59.234375 2.09375 53.4375 0.328125 
Q 47.65625 -1.421875 41.21875 -1.421875 
Q 24.65625 -1.421875 15.125 8.703125 
Q 5.609375 18.84375 5.609375 36.375 
Q 5.609375 53.953125 15.125 64.078125 
Q 24.65625 74.21875 41.21875 74.21875 
Q 47.75 74.21875 53.53125 72.484375 
Q 59.328125 70.75 64.40625 67.28125 
" id="DejaVuSans-43"/>
      <path d="M 48.78125 52.59375 
L 48.78125 44.1875 
Q 44.96875 46.296875 41.140625 47.34375 
Q 37.3125 48.390625 33.40625 48.390625 
Q 24.65625 48.390625 19.8125 42.84375 
Q 14.984375 37.3125 14.984375 27.296875 
Q 14.984375 17.28125 19.8125 11.734375 
Q 24.65625 6.203125 33.40625 6.203125 
Q 37.3125 6.203125 41.140625 7.25 
Q 44.96875 8.296875 48.78125 10.40625 
L 48.78125 2.09375 
Q 45.015625 0.34375 40.984375 -0.53125 
Q 36.96875 -1.421875 32.421875 -1.421875 
Q 20.0625 -1.421875 12.78125 6.34375 
Q 5.515625 14.109375 5.515625 27.296875 
Q 5.515625 40.671875 12.859375 48.328125 
Q 20.21875 56 33.015625 56 
Q 37.15625 56 41.109375 55.140625 
Q 45.0625 54.296875 48.78125 52.59375 
" id="DejaVuSans-63"/>
      <path d="M 34.28125 27.484375 
Q 23.390625 27.484375 19.1875 25 
Q 14.984375 22.515625 14.984375 16.5 
Q 14.984375 11.71875 18.140625 8.90625 
Q 21.296875 6.109375 26.703125 6.109375 
Q 34.1875 6.109375 38.703125 11.40625 
Q 43.21875 16.703125 43.21875 25.484375 
L 43.21875 27.484375 
z
M 52.203125 31.203125 
L 52.203125 0 
L 43.21875 0 
L 43.21875 8.296875 
Q 40.140625 3.328125 35.546875 0.953125 
Q 30.953125 -1.421875 24.3125 -1.421875 
Q 15.921875 -1.421875 10.953125 3.296875 
Q 6 8.015625 6 15.921875 
Q 6 25.140625 12.171875 29.828125 
Q 18.359375 34.515625 30.609375 34.515625 
L 43.21875 34.515625 
L 43.21875 35.40625 
Q 43.21875 41.609375 39.140625 45 
Q 35.0625 48.390625 27.6875 48.390625 
Q 23 48.390625 18.546875 47.265625 
Q 14.109375 46.140625 10.015625 43.890625 
L 10.015625 52.203125 
Q 14.9375 54.109375 19.578125 55.046875 
Q 24.21875 56 28.609375 56 
Q 40.484375 56 46.34375 49.84375 
Q 52.203125 43.703125 52.203125 31.203125 
" id="DejaVuSans-61"/>
      <path d="M 5.515625 54.6875 
L 48.1875 54.6875 
L 48.1875 46.484375 
L 14.40625 7.171875 
L 48.1875 7.171875 
L 48.1875 0 
L 4.296875 0 
L 4.296875 8.203125 
L 38.09375 47.515625 
L 5.515625 47.515625 
z
" id="DejaVuSans-7a"/>
      <path d="M 39.40625 66.21875 
Q 28.65625 66.21875 22.328125 58.203125 
Q 16.015625 50.203125 16.015625 36.375 
Q 16.015625 22.609375 22.328125 14.59375 
Q 28.65625 6.59375 39.40625 6.59375 
Q 50.140625 6.59375 56.421875 14.59375 
Q 62.703125 22.609375 62.703125 36.375 
Q 62.703125 50.203125 56.421875 58.203125 
Q 50.140625 66.21875 39.40625 66.21875 
M 39.40625 74.21875 
Q 54.734375 74.21875 63.90625 63.9375 
Q 73.09375 53.65625 73.09375 36.375 
Q 73.09375 19.140625 63.90625 8.859375 
Q 54.734375 -1.421875 39.40625 -1.421875 
Q 24.03125 -1.421875 14.8125 8.828125 
Q 5.609375 19.09375 5.609375 36.375 
Q 5.609375 53.65625 14.8125 63.9375 
Q 24.03125 74.21875 39.40625 74.21875 
" id="DejaVuSans-4f"/>
      <path d="M 31 75.875 
Q 24.46875 64.65625 21.28125 53.65625 
Q 18.109375 42.671875 18.109375 31.390625 
Q 18.109375 20.125 21.3125 9.0625 
Q 24.515625 -2 31 -13.1875 
L 23.1875 -13.1875 
Q 15.875 -1.703125 12.234375 9.375 
Q 8.59375 20.453125 8.59375 31.390625 
Q 8.59375 42.28125 12.203125 53.3125 
Q 15.828125 64.359375 23.1875 75.875 
z
" id="DejaVuSans-28"/>
      <path d="M 18.109375 8.203125 
L 18.109375 -20.796875 
L 9.078125 -20.796875 
L 9.078125 54.6875 
L 18.109375 54.6875 
L 18.109375 46.390625 
Q 20.953125 51.265625 25.265625 53.625 
Q 29.59375 56 35.59375 56 
Q 45.5625 56 51.78125 48.09375 
Q 58.015625 40.1875 58.015625 27.296875 
Q 58.015625 14.40625 51.78125 6.484375 
Q 45.5625 -1.421875 35.59375 -1.421875 
Q 29.59375 -1.421875 25.265625 0.953125 
Q 20.953125 3.328125 18.109375 8.203125 
M 48.6875 27.296875 
Q 48.6875 37.203125 44.609375 42.84375 
Q 40.53125 48.484375 33.40625 48.484375 
Q 26.265625 48.484375 22.1875 42.84375 
Q 18.109375 37.203125 18.109375 27.296875 
Q 18.109375 17.390625 22.1875 11.75 
Q 26.265625 6.109375 33.40625 6.109375 
Q 40.53125 6.109375 44.609375 11.75 
Q 48.6875 17.390625 48.6875 27.296875 
" id="DejaVuSans-70"/>
      <path d="M 8.015625 75.875 
L 15.828125 75.875 
Q 23.140625 64.359375 26.78125 53.3125 
Q 30.421875 42.28125 30.421875 31.390625 
Q 30.421875 20.453125 26.78125 9.375 
Q 23.140625 -1.703125 15.828125 -13.1875 
L 8.015625 -13.1875 
Q 14.5 -2 17.703125 9.0625 
Q 20.90625 20.125 20.90625 31.390625 
Q 20.90625 42.671875 17.703125 53.65625 
Q 14.5 64.65625 8.015625 75.875 
" id="DejaVuSans-29"/>
     </defs>
     <g style="fill:#555555;" transform="translate(18.510855 233.176962)rotate(-90)scale(0.08 -0.08)">
      <use xlink:href="#DejaVuSans-43"/>
      <use x="69.824219" xlink:href="#DejaVuSans-6f"/>
      <use x="131.005859" xlink:href="#DejaVuSans-6e"/>
      <use x="194.384766" xlink:href="#DejaVuSans-63"/>
      <use x="249.365234" xlink:href="#DejaVuSans-65"/>
      <use x="310.888672" xlink:href="#DejaVuSans-6e"/>
      <use x="374.267578" xlink:href="#DejaVuSans-74"/>
      <use x="413.476562" xlink:href="#DejaVuSans-72"/>
      <use x="454.589844" xlink:href="#DejaVuSans-61"/>
      <use x="515.869141" xlink:href="#DejaVuSans-7a"/>
      <use x="568.359375" xlink:href="#DejaVuSans-69"/>
      <use x="596.142578" xlink:href="#DejaVuSans-6f"/>
      <use x="657.324219" xlink:href="#DejaVuSans-6e"/>
      <use x="720.703125" xlink:href="#DejaVuSans-65"/>
      <use x="782.226562" xlink:href="#DejaVuSans-20"/>
      <use x="814.013672" xlink:href="#DejaVuSans-64"/>
      <use x="877.490234" xlink:href="#DejaVuSans-69"/>
      <use x="905.273438" xlink:href="#DejaVuSans-20"/>
      <use x="937.060547" xlink:href="#DejaVuSans-43"/>
      <use x="1006.884766" xlink:href="#DejaVuSans-4f"/>
      <use x="1085.595703" xlink:href="#DejaVuSans-32"/>
      <use x="1149.21875" xlink:href="#DejaVuSans-20"/>
      <use x="1181.005859" xlink:href="#DejaVuSans-28"/>
      <use x="1220.019531" xlink:href="#DejaVuSans-70"/>
      <use x="1283.496094" xlink:href="#DejaVuSans-70"/>
      <use x="1346.972656" xlink:href="#DejaVuSans-6d"/>
      <use x="1444.384766" xlink:href="#DejaVuSans-29"/>
     </g>
    </g>
   </g>
   <g id="line2d_23">
    <path clip-path="url(#p5631599792)" d="M 46.762105 279.876451 
L 53.355789 277.61729 
L 59.949474 275.862835 
L 66.543158 273.916111 
L 73.136842 272.618295 
L 79.730526 271.104177 
L 86.324211 270.094765 
L 92.917895 266.874259 
L 99.511579 264.999636 
L 106.105263 262.884676 
L 112.698947 259.087363 
L 119.292632 256.539799 
L 125.886316 255.001647 
L 132.48 252.285847 
L 139.073684 246.926348 
L 145.667368 245.724667 
L 152.261053 243.489539 
L 158.854737 241.254412 
L 165.448421 236.952393 
L 172.042105 233.179113 
L 178.635789 229.718271 
L 185.229474 225.127848 
L 191.823158 221.859275 
L 198.416842 218.638769 
L 205.010526 214.793388 
L 211.604211 210.948008 
L 218.197895 207.415065 
L 224.791579 204.290693 
L 231.385263 200.036741 
L 237.978947 194.316738 
L 244.572632 190.591526 
L 251.166316 187.539255 
L 257.76 184.607152 
L 264.353684 182.588328 
L 270.947368 181.026142 
L 277.541053 176.868324 
L 284.134737 172.085632 
L 290.728421 167.783613 
L 297.322105 165.091847 
L 303.915789 157.95386 
L 310.509474 153.91621 
L 317.103158 151.104276 
L 323.696842 147.282929 
L 330.290526 142.139733 
L 336.884211 136.083259 
L 343.477895 131.949475 
L 350.071579 126.469808 
L 356.665263 121.422746 
L 363.258947 116.880391 
L 369.852632 112.530304 
L 376.446316 108.13215 
L 383.04 102.195844 
L 389.633684 97.98996 
L 396.227368 92.702562 
L 402.821053 86.285583 
L 409.414737 81.16642 
L 416.008421 75.92709 
L 422.602105 67.803724 
" style="fill:none;stroke:#008fd5;stroke-width:4;"/>
   </g>
   <g id="patch_3">
    <path d="M 46.762105 290.480087 
L 46.762105 57.200087 
" style="fill:none;stroke:#f0f0f0;stroke-linecap:square;stroke-linejoin:miter;stroke-width:3;"/>
   </g>
   <g id="patch_4">
    <path d="M 422.602105 290.480087 
L 422.602105 57.200087 
" style="fill:none;stroke:#f0f0f0;stroke-linecap:square;stroke-linejoin:miter;stroke-width:3;"/>
   </g>
   <g id="patch_5">
    <path d="M 46.762105 290.480087 
L 422.602105 290.480087 
" style="fill:none;stroke:#f0f0f0;stroke-linecap:square;stroke-linejoin:miter;stroke-width:3;"/>
   </g>
   <g id="patch_6">
    <path d="M 46.762105 57.200087 
L 422.602105 57.200087 
" style="fill:none;stroke:#f0f0f0;stroke-linecap:square;stroke-linejoin:miter;stroke-width:3;"/>
   </g>
   <g id="text_14">
    <g id="patch_7">
     <path d="M 3.2 343.564743 
L 426.310938 343.564743 
L 426.310938 325.886618 
L 3.2 325.886618 
z
" style="fill:#808080;stroke:#808080;stroke-linejoin:miter;stroke-width:0.5;"/>
    </g>
    <a xlink:href="http://www.ildatomancante.it/opendata/ambiente/1023/i-cambiamenti-climatici/">
     <!-- www.ildatomancante.it                                             Fonte: Osservatorio Mauna Loa -->
     <defs>
      <path d="M 4.203125 54.6875 
L 13.1875 54.6875 
L 24.421875 12.015625 
L 35.59375 54.6875 
L 46.1875 54.6875 
L 57.421875 12.015625 
L 68.609375 54.6875 
L 77.59375 54.6875 
L 63.28125 0 
L 52.6875 0 
L 40.921875 44.828125 
L 29.109375 0 
L 18.5 0 
z
" id="DejaVuSans-77"/>
      <path d="M 10.6875 12.40625 
L 21 12.40625 
L 21 0 
L 10.6875 0 
z
" id="DejaVuSans-2e"/>
      <path d="M 9.421875 75.984375 
L 18.40625 75.984375 
L 18.40625 0 
L 9.421875 0 
z
" id="DejaVuSans-6c"/>
      <path d="M 9.8125 72.90625 
L 51.703125 72.90625 
L 51.703125 64.59375 
L 19.671875 64.59375 
L 19.671875 43.109375 
L 48.578125 43.109375 
L 48.578125 34.8125 
L 19.671875 34.8125 
L 19.671875 0 
L 9.8125 0 
z
" id="DejaVuSans-46"/>
      <path d="M 11.71875 12.40625 
L 22.015625 12.40625 
L 22.015625 0 
L 11.71875 0 
z
M 11.71875 51.703125 
L 22.015625 51.703125 
L 22.015625 39.3125 
L 11.71875 39.3125 
z
" id="DejaVuSans-3a"/>
      <path d="M 44.28125 53.078125 
L 44.28125 44.578125 
Q 40.484375 46.53125 36.375 47.5 
Q 32.28125 48.484375 27.875 48.484375 
Q 21.1875 48.484375 17.84375 46.4375 
Q 14.5 44.390625 14.5 40.28125 
Q 14.5 37.15625 16.890625 35.375 
Q 19.28125 33.59375 26.515625 31.984375 
L 29.59375 31.296875 
Q 39.15625 29.25 43.1875 25.515625 
Q 47.21875 21.78125 47.21875 15.09375 
Q 47.21875 7.46875 41.1875 3.015625 
Q 35.15625 -1.421875 24.609375 -1.421875 
Q 20.21875 -1.421875 15.453125 -0.5625 
Q 10.6875 0.296875 5.421875 2 
L 5.421875 11.28125 
Q 10.40625 8.6875 15.234375 7.390625 
Q 20.0625 6.109375 24.8125 6.109375 
Q 31.15625 6.109375 34.5625 8.28125 
Q 37.984375 10.453125 37.984375 14.40625 
Q 37.984375 18.0625 35.515625 20.015625 
Q 33.0625 21.96875 24.703125 23.78125 
L 21.578125 24.515625 
Q 13.234375 26.265625 9.515625 29.90625 
Q 5.8125 33.546875 5.8125 39.890625 
Q 5.8125 47.609375 11.28125 51.796875 
Q 16.75 56 26.8125 56 
Q 31.78125 56 36.171875 55.265625 
Q 40.578125 54.546875 44.28125 53.078125 
" id="DejaVuSans-73"/>
      <path d="M 2.984375 54.6875 
L 12.5 54.6875 
L 29.59375 8.796875 
L 46.6875 54.6875 
L 56.203125 54.6875 
L 35.6875 0 
L 23.484375 0 
z
" id="DejaVuSans-76"/>
      <path d="M 9.8125 72.90625 
L 24.515625 72.90625 
L 43.109375 23.296875 
L 61.8125 72.90625 
L 76.515625 72.90625 
L 76.515625 0 
L 66.890625 0 
L 66.890625 64.015625 
L 48.09375 14.015625 
L 38.1875 14.015625 
L 19.390625 64.015625 
L 19.390625 0 
L 9.8125 0 
z
" id="DejaVuSans-4d"/>
      <path d="M 8.5 21.578125 
L 8.5 54.6875 
L 17.484375 54.6875 
L 17.484375 21.921875 
Q 17.484375 14.15625 20.5 10.265625 
Q 23.53125 6.390625 29.59375 6.390625 
Q 36.859375 6.390625 41.078125 11.03125 
Q 45.3125 15.671875 45.3125 23.6875 
L 45.3125 54.6875 
L 54.296875 54.6875 
L 54.296875 0 
L 45.3125 0 
L 45.3125 8.40625 
Q 42.046875 3.421875 37.71875 1 
Q 33.40625 -1.421875 27.6875 -1.421875 
Q 18.265625 -1.421875 13.375 4.4375 
Q 8.5 10.296875 8.5 21.578125 
M 31.109375 56 
z
" id="DejaVuSans-75"/>
      <path d="M 9.8125 72.90625 
L 19.671875 72.90625 
L 19.671875 8.296875 
L 55.171875 8.296875 
L 55.171875 0 
L 9.8125 0 
z
" id="DejaVuSans-4c"/>
     </defs>
     <g style="fill:#f0f0f0;" transform="translate(7.2 337.485056)scale(0.1 -0.1)">
      <use xlink:href="#DejaVuSans-77"/>
      <use x="81.787109" xlink:href="#DejaVuSans-77"/>
      <use x="163.574219" xlink:href="#DejaVuSans-77"/>
      <use x="245.220703" xlink:href="#DejaVuSans-2e"/>
      <use x="277.007812" xlink:href="#DejaVuSans-69"/>
      <use x="304.791016" xlink:href="#DejaVuSans-6c"/>
      <use x="332.574219" xlink:href="#DejaVuSans-64"/>
      <use x="396.050781" xlink:href="#DejaVuSans-61"/>
      <use x="457.330078" xlink:href="#DejaVuSans-74"/>
      <use x="496.539062" xlink:href="#DejaVuSans-6f"/>
      <use x="557.720703" xlink:href="#DejaVuSans-6d"/>
      <use x="655.132812" xlink:href="#DejaVuSans-61"/>
      <use x="716.412109" xlink:href="#DejaVuSans-6e"/>
      <use x="779.791016" xlink:href="#DejaVuSans-63"/>
      <use x="834.771484" xlink:href="#DejaVuSans-61"/>
      <use x="896.050781" xlink:href="#DejaVuSans-6e"/>
      <use x="959.429688" xlink:href="#DejaVuSans-74"/>
      <use x="998.638672" xlink:href="#DejaVuSans-65"/>
      <use x="1060.162109" xlink:href="#DejaVuSans-2e"/>
      <use x="1091.949219" xlink:href="#DejaVuSans-69"/>
      <use x="1119.732422" xlink:href="#DejaVuSans-74"/>
      <use x="1158.941406" xlink:href="#DejaVuSans-20"/>
      <use x="1190.728516" xlink:href="#DejaVuSans-20"/>
      <use x="1222.515625" xlink:href="#DejaVuSans-20"/>
      <use x="1254.302734" xlink:href="#DejaVuSans-20"/>
      <use x="1286.089844" xlink:href="#DejaVuSans-20"/>
      <use x="1317.876953" xlink:href="#DejaVuSans-20"/>
      <use x="1349.664062" xlink:href="#DejaVuSans-20"/>
      <use x="1381.451172" xlink:href="#DejaVuSans-20"/>
      <use x="1413.238281" xlink:href="#DejaVuSans-20"/>
      <use x="1445.025391" xlink:href="#DejaVuSans-20"/>
      <use x="1476.8125" xlink:href="#DejaVuSans-20"/>
      <use x="1508.599609" xlink:href="#DejaVuSans-20"/>
      <use x="1540.386719" xlink:href="#DejaVuSans-20"/>
      <use x="1572.173828" xlink:href="#DejaVuSans-20"/>
      <use x="1603.960938" xlink:href="#DejaVuSans-20"/>
      <use x="1635.748047" xlink:href="#DejaVuSans-20"/>
      <use x="1667.535156" xlink:href="#DejaVuSans-20"/>
      <use x="1699.322266" xlink:href="#DejaVuSans-20"/>
      <use x="1731.109375" xlink:href="#DejaVuSans-20"/>
      <use x="1762.896484" xlink:href="#DejaVuSans-20"/>
      <use x="1794.683594" xlink:href="#DejaVuSans-20"/>
      <use x="1826.470703" xlink:href="#DejaVuSans-20"/>
      <use x="1858.257812" xlink:href="#DejaVuSans-20"/>
      <use x="1890.044922" xlink:href="#DejaVuSans-20"/>
      <use x="1921.832031" xlink:href="#DejaVuSans-20"/>
      <use x="1953.619141" xlink:href="#DejaVuSans-20"/>
      <use x="1985.40625" xlink:href="#DejaVuSans-20"/>
      <use x="2017.193359" xlink:href="#DejaVuSans-20"/>
      <use x="2048.980469" xlink:href="#DejaVuSans-20"/>
      <use x="2080.767578" xlink:href="#DejaVuSans-20"/>
      <use x="2112.554688" xlink:href="#DejaVuSans-20"/>
      <use x="2144.341797" xlink:href="#DejaVuSans-20"/>
      <use x="2176.128906" xlink:href="#DejaVuSans-20"/>
      <use x="2207.916016" xlink:href="#DejaVuSans-20"/>
      <use x="2239.703125" xlink:href="#DejaVuSans-20"/>
      <use x="2271.490234" xlink:href="#DejaVuSans-20"/>
      <use x="2303.277344" xlink:href="#DejaVuSans-20"/>
      <use x="2335.064453" xlink:href="#DejaVuSans-20"/>
      <use x="2366.851562" xlink:href="#DejaVuSans-20"/>
      <use x="2398.638672" xlink:href="#DejaVuSans-20"/>
      <use x="2430.425781" xlink:href="#DejaVuSans-20"/>
      <use x="2462.212891" xlink:href="#DejaVuSans-20"/>
      <use x="2494" xlink:href="#DejaVuSans-20"/>
      <use x="2525.787109" xlink:href="#DejaVuSans-20"/>
      <use x="2557.574219" xlink:href="#DejaVuSans-20"/>
      <use x="2589.361328" xlink:href="#DejaVuSans-46"/>
      <use x="2646.833984" xlink:href="#DejaVuSans-6f"/>
      <use x="2708.015625" xlink:href="#DejaVuSans-6e"/>
      <use x="2771.394531" xlink:href="#DejaVuSans-74"/>
      <use x="2810.603516" xlink:href="#DejaVuSans-65"/>
      <use x="2872.126953" xlink:href="#DejaVuSans-3a"/>
      <use x="2905.818359" xlink:href="#DejaVuSans-20"/>
      <use x="2937.605469" xlink:href="#DejaVuSans-4f"/>
      <use x="3016.316406" xlink:href="#DejaVuSans-73"/>
      <use x="3068.416016" xlink:href="#DejaVuSans-73"/>
      <use x="3120.515625" xlink:href="#DejaVuSans-65"/>
      <use x="3182.039062" xlink:href="#DejaVuSans-72"/>
      <use x="3223.152344" xlink:href="#DejaVuSans-76"/>
      <use x="3282.332031" xlink:href="#DejaVuSans-61"/>
      <use x="3343.611328" xlink:href="#DejaVuSans-74"/>
      <use x="3382.820312" xlink:href="#DejaVuSans-6f"/>
      <use x="3444.001953" xlink:href="#DejaVuSans-72"/>
      <use x="3485.115234" xlink:href="#DejaVuSans-69"/>
      <use x="3512.898438" xlink:href="#DejaVuSans-6f"/>
      <use x="3574.080078" xlink:href="#DejaVuSans-20"/>
      <use x="3605.867188" xlink:href="#DejaVuSans-4d"/>
      <use x="3692.146484" xlink:href="#DejaVuSans-61"/>
      <use x="3753.425781" xlink:href="#DejaVuSans-75"/>
      <use x="3816.804688" xlink:href="#DejaVuSans-6e"/>
      <use x="3880.183594" xlink:href="#DejaVuSans-61"/>
      <use x="3941.462891" xlink:href="#DejaVuSans-20"/>
      <use x="3973.25" xlink:href="#DejaVuSans-4c"/>
      <use x="4028.947266" xlink:href="#DejaVuSans-6f"/>
      <use x="4090.128906" xlink:href="#DejaVuSans-61"/>
     </g>
    </a>
   </g>
   <g id="text_15">
    <!-- Trend Concentrazione Anidride Carbonica -->
    <defs>
     <path d="M 0.484375 72.90625 
L 67.671875 72.90625 
L 67.671875 58.6875 
L 43.5 58.6875 
L 43.5 0 
L 24.703125 0 
L 24.703125 58.6875 
L 0.484375 58.6875 
z
" id="DejaVuSans-Bold-54"/>
     <path d="M 49.03125 39.796875 
Q 46.734375 40.875 44.453125 41.375 
Q 42.1875 41.890625 39.890625 41.890625 
Q 33.15625 41.890625 29.515625 37.5625 
Q 25.875 33.25 25.875 25.203125 
L 25.875 0 
L 8.40625 0 
L 8.40625 54.6875 
L 25.875 54.6875 
L 25.875 45.703125 
Q 29.25 51.078125 33.609375 53.53125 
Q 37.984375 56 44.09375 56 
Q 44.96875 56 45.984375 55.921875 
Q 47.015625 55.859375 48.96875 55.609375 
z
" id="DejaVuSans-Bold-72"/>
     <path d="M 62.984375 27.484375 
L 62.984375 22.515625 
L 22.125 22.515625 
Q 22.75 16.359375 26.5625 13.28125 
Q 30.375 10.203125 37.203125 10.203125 
Q 42.71875 10.203125 48.5 11.84375 
Q 54.296875 13.484375 60.40625 16.796875 
L 60.40625 3.328125 
Q 54.203125 0.984375 48 -0.21875 
Q 41.796875 -1.421875 35.59375 -1.421875 
Q 20.75 -1.421875 12.515625 6.125 
Q 4.296875 13.671875 4.296875 27.296875 
Q 4.296875 40.671875 12.375 48.328125 
Q 20.453125 56 34.625 56 
Q 47.515625 56 55.25 48.234375 
Q 62.984375 40.484375 62.984375 27.484375 
M 45.015625 33.296875 
Q 45.015625 38.28125 42.109375 41.328125 
Q 39.203125 44.390625 34.515625 44.390625 
Q 29.4375 44.390625 26.265625 41.53125 
Q 23.09375 38.671875 22.3125 33.296875 
z
" id="DejaVuSans-Bold-65"/>
     <path d="M 63.375 33.296875 
L 63.375 0 
L 45.796875 0 
L 45.796875 5.421875 
L 45.796875 25.484375 
Q 45.796875 32.5625 45.484375 35.25 
Q 45.171875 37.9375 44.390625 39.203125 
Q 43.359375 40.921875 41.59375 41.875 
Q 39.84375 42.828125 37.59375 42.828125 
Q 32.125 42.828125 29 38.59375 
Q 25.875 34.375 25.875 26.90625 
L 25.875 0 
L 8.40625 0 
L 8.40625 54.6875 
L 25.875 54.6875 
L 25.875 46.6875 
Q 29.828125 51.46875 34.265625 53.734375 
Q 38.71875 56 44.09375 56 
Q 53.5625 56 58.46875 50.1875 
Q 63.375 44.390625 63.375 33.296875 
" id="DejaVuSans-Bold-6e"/>
     <path d="M 45.609375 46.6875 
L 45.609375 75.984375 
L 63.1875 75.984375 
L 63.1875 0 
L 45.609375 0 
L 45.609375 7.90625 
Q 42 3.078125 37.640625 0.828125 
Q 33.296875 -1.421875 27.59375 -1.421875 
Q 17.484375 -1.421875 10.984375 6.609375 
Q 4.5 14.65625 4.5 27.296875 
Q 4.5 39.9375 10.984375 47.96875 
Q 17.484375 56 27.59375 56 
Q 33.25 56 37.625 53.734375 
Q 42 51.46875 45.609375 46.6875 
M 34.078125 11.28125 
Q 39.703125 11.28125 42.65625 15.375 
Q 45.609375 19.484375 45.609375 27.296875 
Q 45.609375 35.109375 42.65625 39.203125 
Q 39.703125 43.3125 34.078125 43.3125 
Q 28.515625 43.3125 25.5625 39.203125 
Q 22.609375 35.109375 22.609375 27.296875 
Q 22.609375 19.484375 25.5625 15.375 
Q 28.515625 11.28125 34.078125 11.28125 
" id="DejaVuSans-Bold-64"/>
     <path id="DejaVuSans-Bold-20"/>
     <path d="M 67 4 
Q 61.8125 1.3125 56.203125 -0.046875 
Q 50.59375 -1.421875 44.484375 -1.421875 
Q 26.265625 -1.421875 15.625 8.765625 
Q 4.984375 18.953125 4.984375 36.375 
Q 4.984375 53.859375 15.625 64.03125 
Q 26.265625 74.21875 44.484375 74.21875 
Q 50.59375 74.21875 56.203125 72.84375 
Q 61.8125 71.484375 67 68.796875 
L 67 53.71875 
Q 61.765625 57.28125 56.6875 58.9375 
Q 51.609375 60.59375 46 60.59375 
Q 35.9375 60.59375 30.171875 54.140625 
Q 24.421875 47.703125 24.421875 36.375 
Q 24.421875 25.09375 30.171875 18.640625 
Q 35.9375 12.203125 46 12.203125 
Q 51.609375 12.203125 56.6875 13.859375 
Q 61.765625 15.53125 67 19.09375 
z
" id="DejaVuSans-Bold-43"/>
     <path d="M 34.421875 43.5 
Q 28.609375 43.5 25.5625 39.328125 
Q 22.515625 35.15625 22.515625 27.296875 
Q 22.515625 19.4375 25.5625 15.25 
Q 28.609375 11.078125 34.421875 11.078125 
Q 40.140625 11.078125 43.15625 15.25 
Q 46.1875 19.4375 46.1875 27.296875 
Q 46.1875 35.15625 43.15625 39.328125 
Q 40.140625 43.5 34.421875 43.5 
M 34.421875 56 
Q 48.53125 56 56.46875 48.375 
Q 64.40625 40.765625 64.40625 27.296875 
Q 64.40625 13.8125 56.46875 6.1875 
Q 48.53125 -1.421875 34.421875 -1.421875 
Q 20.265625 -1.421875 12.28125 6.1875 
Q 4.296875 13.8125 4.296875 27.296875 
Q 4.296875 40.765625 12.28125 48.375 
Q 20.265625 56 34.421875 56 
" id="DejaVuSans-Bold-6f"/>
     <path d="M 52.59375 52.984375 
L 52.59375 38.71875 
Q 49.03125 41.15625 45.4375 42.328125 
Q 41.84375 43.5 37.984375 43.5 
Q 30.671875 43.5 26.59375 39.234375 
Q 22.515625 34.96875 22.515625 27.296875 
Q 22.515625 19.625 26.59375 15.34375 
Q 30.671875 11.078125 37.984375 11.078125 
Q 42.09375 11.078125 45.78125 12.296875 
Q 49.46875 13.53125 52.59375 15.921875 
L 52.59375 1.609375 
Q 48.484375 0.09375 44.265625 -0.65625 
Q 40.046875 -1.421875 35.796875 -1.421875 
Q 21 -1.421875 12.640625 6.171875 
Q 4.296875 13.765625 4.296875 27.296875 
Q 4.296875 40.828125 12.640625 48.40625 
Q 21 56 35.796875 56 
Q 40.09375 56 44.265625 55.25 
Q 48.4375 54.5 52.59375 52.984375 
" id="DejaVuSans-Bold-63"/>
     <path d="M 27.484375 70.21875 
L 27.484375 54.6875 
L 45.515625 54.6875 
L 45.515625 42.1875 
L 27.484375 42.1875 
L 27.484375 19 
Q 27.484375 15.1875 29 13.84375 
Q 30.515625 12.5 35.015625 12.5 
L 44 12.5 
L 44 0 
L 29 0 
Q 18.65625 0 14.328125 4.3125 
Q 10.015625 8.640625 10.015625 19 
L 10.015625 42.1875 
L 1.3125 42.1875 
L 1.3125 54.6875 
L 10.015625 54.6875 
L 10.015625 70.21875 
z
" id="DejaVuSans-Bold-74"/>
     <path d="M 32.90625 24.609375 
Q 27.4375 24.609375 24.671875 22.75 
Q 21.921875 20.90625 21.921875 17.28125 
Q 21.921875 13.96875 24.140625 12.078125 
Q 26.375 10.203125 30.328125 10.203125 
Q 35.25 10.203125 38.625 13.734375 
Q 42 17.28125 42 22.609375 
L 42 24.609375 
z
M 59.625 31.203125 
L 59.625 0 
L 42 0 
L 42 8.109375 
Q 38.484375 3.125 34.078125 0.84375 
Q 29.6875 -1.421875 23.390625 -1.421875 
Q 14.890625 -1.421875 9.59375 3.53125 
Q 4.296875 8.5 4.296875 16.40625 
Q 4.296875 26.03125 10.90625 30.515625 
Q 17.53125 35.015625 31.6875 35.015625 
L 42 35.015625 
L 42 36.375 
Q 42 40.53125 38.71875 42.453125 
Q 35.453125 44.390625 28.515625 44.390625 
Q 22.90625 44.390625 18.0625 43.265625 
Q 13.234375 42.140625 9.078125 39.890625 
L 9.078125 53.21875 
Q 14.703125 54.59375 20.359375 55.296875 
Q 26.03125 56 31.6875 56 
Q 46.484375 56 53.046875 50.171875 
Q 59.625 44.34375 59.625 31.203125 
" id="DejaVuSans-Bold-61"/>
     <path d="M 5.71875 54.6875 
L 53.421875 54.6875 
L 53.421875 42.484375 
L 24.609375 12.5 
L 53.421875 12.5 
L 53.421875 0 
L 4.5 0 
L 4.5 12.203125 
L 33.296875 42.1875 
L 5.71875 42.1875 
z
" id="DejaVuSans-Bold-7a"/>
     <path d="M 8.40625 54.6875 
L 25.875 54.6875 
L 25.875 0 
L 8.40625 0 
z
M 8.40625 75.984375 
L 25.875 75.984375 
L 25.875 61.71875 
L 8.40625 61.71875 
z
" id="DejaVuSans-Bold-69"/>
     <path d="M 53.421875 13.28125 
L 24.03125 13.28125 
L 19.390625 0 
L 0.484375 0 
L 27.484375 72.90625 
L 49.90625 72.90625 
L 76.90625 0 
L 58.015625 0 
z
M 28.71875 26.8125 
L 48.6875 26.8125 
L 38.71875 55.8125 
z
" id="DejaVuSans-Bold-41"/>
     <path d="M 37.5 11.28125 
Q 43.109375 11.28125 46.0625 15.375 
Q 49.03125 19.484375 49.03125 27.296875 
Q 49.03125 35.109375 46.0625 39.203125 
Q 43.109375 43.3125 37.5 43.3125 
Q 31.890625 43.3125 28.875 39.1875 
Q 25.875 35.0625 25.875 27.296875 
Q 25.875 19.53125 28.875 15.40625 
Q 31.890625 11.28125 37.5 11.28125 
M 25.875 46.6875 
Q 29.5 51.46875 33.890625 53.734375 
Q 38.28125 56 44 56 
Q 54.109375 56 60.59375 47.96875 
Q 67.09375 39.9375 67.09375 27.296875 
Q 67.09375 14.65625 60.59375 6.609375 
Q 54.109375 -1.421875 44 -1.421875 
Q 38.28125 -1.421875 33.890625 0.84375 
Q 29.5 3.125 25.875 7.90625 
L 25.875 0 
L 8.40625 0 
L 8.40625 75.984375 
L 25.875 75.984375 
z
" id="DejaVuSans-Bold-62"/>
    </defs>
    <g style="opacity:0.75;" transform="translate(13.793684 17.837812)scale(0.14 -0.14)">
     <use xlink:href="#DejaVuSans-Bold-54"/>
     <use x="68.041016" xlink:href="#DejaVuSans-Bold-72"/>
     <use x="117.357422" xlink:href="#DejaVuSans-Bold-65"/>
     <use x="185.179688" xlink:href="#DejaVuSans-Bold-6e"/>
     <use x="256.371094" xlink:href="#DejaVuSans-Bold-64"/>
     <use x="327.953125" xlink:href="#DejaVuSans-Bold-20"/>
     <use x="362.767578" xlink:href="#DejaVuSans-Bold-43"/>
     <use x="436.15625" xlink:href="#DejaVuSans-Bold-6f"/>
     <use x="504.857422" xlink:href="#DejaVuSans-Bold-6e"/>
     <use x="576.048828" xlink:href="#DejaVuSans-Bold-63"/>
     <use x="635.326172" xlink:href="#DejaVuSans-Bold-65"/>
     <use x="703.148438" xlink:href="#DejaVuSans-Bold-6e"/>
     <use x="774.339844" xlink:href="#DejaVuSans-Bold-74"/>
     <use x="822.142578" xlink:href="#DejaVuSans-Bold-72"/>
     <use x="871.458984" xlink:href="#DejaVuSans-Bold-61"/>
     <use x="938.939453" xlink:href="#DejaVuSans-Bold-7a"/>
     <use x="997.142578" xlink:href="#DejaVuSans-Bold-69"/>
     <use x="1031.419922" xlink:href="#DejaVuSans-Bold-6f"/>
     <use x="1100.121094" xlink:href="#DejaVuSans-Bold-6e"/>
     <use x="1171.3125" xlink:href="#DejaVuSans-Bold-65"/>
     <use x="1239.134766" xlink:href="#DejaVuSans-Bold-20"/>
     <use x="1273.949219" xlink:href="#DejaVuSans-Bold-41"/>
     <use x="1351.341797" xlink:href="#DejaVuSans-Bold-6e"/>
     <use x="1422.533203" xlink:href="#DejaVuSans-Bold-69"/>
     <use x="1456.810547" xlink:href="#DejaVuSans-Bold-64"/>
     <use x="1528.392578" xlink:href="#DejaVuSans-Bold-72"/>
     <use x="1577.708984" xlink:href="#DejaVuSans-Bold-69"/>
     <use x="1611.986328" xlink:href="#DejaVuSans-Bold-64"/>
     <use x="1683.568359" xlink:href="#DejaVuSans-Bold-65"/>
     <use x="1751.390625" xlink:href="#DejaVuSans-Bold-20"/>
     <use x="1786.205078" xlink:href="#DejaVuSans-Bold-43"/>
     <use x="1859.59375" xlink:href="#DejaVuSans-Bold-61"/>
     <use x="1927.074219" xlink:href="#DejaVuSans-Bold-72"/>
     <use x="1976.390625" xlink:href="#DejaVuSans-Bold-62"/>
     <use x="2047.972656" xlink:href="#DejaVuSans-Bold-6f"/>
     <use x="2116.673828" xlink:href="#DejaVuSans-Bold-6e"/>
     <use x="2187.865234" xlink:href="#DejaVuSans-Bold-69"/>
     <use x="2222.142578" xlink:href="#DejaVuSans-Bold-63"/>
     <use x="2281.419922" xlink:href="#DejaVuSans-Bold-61"/>
    </g>
   </g>
   <g id="text_16">
    <!-- Trend storico della concentrazione di CO2 in ppm (parti per milione) registrato  -->
    <defs>
     <path d="M -0.296875 72.90625 
L 61.375 72.90625 
L 61.375 64.59375 
L 35.5 64.59375 
L 35.5 0 
L 25.59375 0 
L 25.59375 64.59375 
L -0.296875 64.59375 
z
" id="DejaVuSans-54"/>
     <path d="M 45.40625 27.984375 
Q 45.40625 37.75 41.375 43.109375 
Q 37.359375 48.484375 30.078125 48.484375 
Q 22.859375 48.484375 18.828125 43.109375 
Q 14.796875 37.75 14.796875 27.984375 
Q 14.796875 18.265625 18.828125 12.890625 
Q 22.859375 7.515625 30.078125 7.515625 
Q 37.359375 7.515625 41.375 12.890625 
Q 45.40625 18.265625 45.40625 27.984375 
M 54.390625 6.78125 
Q 54.390625 -7.171875 48.1875 -13.984375 
Q 42 -20.796875 29.203125 -20.796875 
Q 24.46875 -20.796875 20.265625 -20.09375 
Q 16.0625 -19.390625 12.109375 -17.921875 
L 12.109375 -9.1875 
Q 16.0625 -11.328125 19.921875 -12.34375 
Q 23.78125 -13.375 27.78125 -13.375 
Q 36.625 -13.375 41.015625 -8.765625 
Q 45.40625 -4.15625 45.40625 5.171875 
L 45.40625 9.625 
Q 42.625 4.78125 38.28125 2.390625 
Q 33.9375 0 27.875 0 
Q 17.828125 0 11.671875 7.65625 
Q 5.515625 15.328125 5.515625 27.984375 
Q 5.515625 40.671875 11.671875 48.328125 
Q 17.828125 56 27.875 56 
Q 33.9375 56 38.28125 53.609375 
Q 42.625 51.21875 45.40625 46.390625 
L 45.40625 54.6875 
L 54.390625 54.6875 
z
" id="DejaVuSans-67"/>
    </defs>
    <g style="opacity:0.85;" transform="translate(13.793684 30.673627)scale(0.1 -0.1)">
     <use xlink:href="#DejaVuSans-54"/>
     <use x="60.865234" xlink:href="#DejaVuSans-72"/>
     <use x="101.947266" xlink:href="#DejaVuSans-65"/>
     <use x="163.470703" xlink:href="#DejaVuSans-6e"/>
     <use x="226.849609" xlink:href="#DejaVuSans-64"/>
     <use x="290.326172" xlink:href="#DejaVuSans-20"/>
     <use x="322.113281" xlink:href="#DejaVuSans-73"/>
     <use x="374.212891" xlink:href="#DejaVuSans-74"/>
     <use x="413.421875" xlink:href="#DejaVuSans-6f"/>
     <use x="474.603516" xlink:href="#DejaVuSans-72"/>
     <use x="515.716797" xlink:href="#DejaVuSans-69"/>
     <use x="543.5" xlink:href="#DejaVuSans-63"/>
     <use x="598.480469" xlink:href="#DejaVuSans-6f"/>
     <use x="659.662109" xlink:href="#DejaVuSans-20"/>
     <use x="691.449219" xlink:href="#DejaVuSans-64"/>
     <use x="754.925781" xlink:href="#DejaVuSans-65"/>
     <use x="816.449219" xlink:href="#DejaVuSans-6c"/>
     <use x="844.232422" xlink:href="#DejaVuSans-6c"/>
     <use x="872.015625" xlink:href="#DejaVuSans-61"/>
     <use x="933.294922" xlink:href="#DejaVuSans-20"/>
     <use x="965.082031" xlink:href="#DejaVuSans-63"/>
     <use x="1020.0625" xlink:href="#DejaVuSans-6f"/>
     <use x="1081.244141" xlink:href="#DejaVuSans-6e"/>
     <use x="1144.623047" xlink:href="#DejaVuSans-63"/>
     <use x="1199.603516" xlink:href="#DejaVuSans-65"/>
     <use x="1261.126953" xlink:href="#DejaVuSans-6e"/>
     <use x="1324.505859" xlink:href="#DejaVuSans-74"/>
     <use x="1363.714844" xlink:href="#DejaVuSans-72"/>
     <use x="1404.828125" xlink:href="#DejaVuSans-61"/>
     <use x="1466.107422" xlink:href="#DejaVuSans-7a"/>
     <use x="1518.597656" xlink:href="#DejaVuSans-69"/>
     <use x="1546.380859" xlink:href="#DejaVuSans-6f"/>
     <use x="1607.5625" xlink:href="#DejaVuSans-6e"/>
     <use x="1670.941406" xlink:href="#DejaVuSans-65"/>
     <use x="1732.464844" xlink:href="#DejaVuSans-20"/>
     <use x="1764.251953" xlink:href="#DejaVuSans-64"/>
     <use x="1827.728516" xlink:href="#DejaVuSans-69"/>
     <use x="1855.511719" xlink:href="#DejaVuSans-20"/>
     <use x="1887.298828" xlink:href="#DejaVuSans-43"/>
     <use x="1957.123047" xlink:href="#DejaVuSans-4f"/>
     <use x="2035.833984" xlink:href="#DejaVuSans-32"/>
     <use x="2099.457031" xlink:href="#DejaVuSans-20"/>
     <use x="2131.244141" xlink:href="#DejaVuSans-69"/>
     <use x="2159.027344" xlink:href="#DejaVuSans-6e"/>
     <use x="2222.40625" xlink:href="#DejaVuSans-20"/>
     <use x="2254.193359" xlink:href="#DejaVuSans-70"/>
     <use x="2317.669922" xlink:href="#DejaVuSans-70"/>
     <use x="2381.146484" xlink:href="#DejaVuSans-6d"/>
     <use x="2478.558594" xlink:href="#DejaVuSans-20"/>
     <use x="2510.345703" xlink:href="#DejaVuSans-28"/>
     <use x="2549.359375" xlink:href="#DejaVuSans-70"/>
     <use x="2612.835938" xlink:href="#DejaVuSans-61"/>
     <use x="2674.115234" xlink:href="#DejaVuSans-72"/>
     <use x="2715.228516" xlink:href="#DejaVuSans-74"/>
     <use x="2754.4375" xlink:href="#DejaVuSans-69"/>
     <use x="2782.220703" xlink:href="#DejaVuSans-20"/>
     <use x="2814.007812" xlink:href="#DejaVuSans-70"/>
     <use x="2877.484375" xlink:href="#DejaVuSans-65"/>
     <use x="2939.007812" xlink:href="#DejaVuSans-72"/>
     <use x="2980.121094" xlink:href="#DejaVuSans-20"/>
     <use x="3011.908203" xlink:href="#DejaVuSans-6d"/>
     <use x="3109.320312" xlink:href="#DejaVuSans-69"/>
     <use x="3137.103516" xlink:href="#DejaVuSans-6c"/>
     <use x="3164.886719" xlink:href="#DejaVuSans-69"/>
     <use x="3192.669922" xlink:href="#DejaVuSans-6f"/>
     <use x="3253.851562" xlink:href="#DejaVuSans-6e"/>
     <use x="3317.230469" xlink:href="#DejaVuSans-65"/>
     <use x="3378.753906" xlink:href="#DejaVuSans-29"/>
     <use x="3417.767578" xlink:href="#DejaVuSans-20"/>
     <use x="3449.554688" xlink:href="#DejaVuSans-72"/>
     <use x="3490.636719" xlink:href="#DejaVuSans-65"/>
     <use x="3552.160156" xlink:href="#DejaVuSans-67"/>
     <use x="3615.636719" xlink:href="#DejaVuSans-69"/>
     <use x="3643.419922" xlink:href="#DejaVuSans-73"/>
     <use x="3695.519531" xlink:href="#DejaVuSans-74"/>
     <use x="3734.728516" xlink:href="#DejaVuSans-72"/>
     <use x="3775.841797" xlink:href="#DejaVuSans-61"/>
     <use x="3837.121094" xlink:href="#DejaVuSans-74"/>
     <use x="3876.330078" xlink:href="#DejaVuSans-6f"/>
     <use x="3937.511719" xlink:href="#DejaVuSans-20"/>
    </g>
    <!-- dall'Osservatorio Muana Loa -->
    <defs>
     <path d="M 17.921875 72.90625 
L 17.921875 45.796875 
L 9.625 45.796875 
L 9.625 72.90625 
z
" id="DejaVuSans-27"/>
    </defs>
    <g style="opacity:0.85;" transform="translate(13.793684 41.87144)scale(0.1 -0.1)">
     <use xlink:href="#DejaVuSans-64"/>
     <use x="63.476562" xlink:href="#DejaVuSans-61"/>
     <use x="124.755859" xlink:href="#DejaVuSans-6c"/>
     <use x="152.539062" xlink:href="#DejaVuSans-6c"/>
     <use x="180.322266" xlink:href="#DejaVuSans-27"/>
     <use x="207.8125" xlink:href="#DejaVuSans-4f"/>
     <use x="286.523438" xlink:href="#DejaVuSans-73"/>
     <use x="338.623047" xlink:href="#DejaVuSans-73"/>
     <use x="390.722656" xlink:href="#DejaVuSans-65"/>
     <use x="452.246094" xlink:href="#DejaVuSans-72"/>
     <use x="493.359375" xlink:href="#DejaVuSans-76"/>
     <use x="552.539062" xlink:href="#DejaVuSans-61"/>
     <use x="613.818359" xlink:href="#DejaVuSans-74"/>
     <use x="653.027344" xlink:href="#DejaVuSans-6f"/>
     <use x="714.208984" xlink:href="#DejaVuSans-72"/>
     <use x="755.322266" xlink:href="#DejaVuSans-69"/>
     <use x="783.105469" xlink:href="#DejaVuSans-6f"/>
     <use x="844.287109" xlink:href="#DejaVuSans-20"/>
     <use x="876.074219" xlink:href="#DejaVuSans-4d"/>
     <use x="962.353516" xlink:href="#DejaVuSans-75"/>
     <use x="1025.732422" xlink:href="#DejaVuSans-61"/>
     <use x="1087.011719" xlink:href="#DejaVuSans-6e"/>
     <use x="1150.390625" xlink:href="#DejaVuSans-61"/>
     <use x="1211.669922" xlink:href="#DejaVuSans-20"/>
     <use x="1243.457031" xlink:href="#DejaVuSans-4c"/>
     <use x="1299.154297" xlink:href="#DejaVuSans-6f"/>
     <use x="1360.335938" xlink:href="#DejaVuSans-61"/>
    </g>
   </g>
  </g>
 </g>
 <defs>
  <clipPath id="p5631599792">
   <rect height="233.28" width="375.84" x="46.762105" y="57.200087"/>
  </clipPath>
 </defs>
</svg>
